<mxfile host="app.diagrams.net" modified="2024-06-07T16:09:10.404Z" agent="Mozilla/5.0 (Windows NT 10.0; Win64; x64) AppleWebKit/537.36 (KHTML, like Gecko) Chrome/125.0.0.0 Safari/537.36" version="24.3.1" etag="y2-Do2r8RdjbUftiX62O" type="github">
  <diagram name="Page-1" id="ZF5ECwZWyxHS3b73837v">
    <mxGraphModel>
      <root>
        <mxCell id="0" />
        <mxCell id="1" parent="0" />
      </root>
    </mxGraphModel>
  </diagram>
</mxfile>
